PathFileType	4	(X/Y/Z)	7_coords_data.trc
DataRate	CameraRate	NumFrames	NumMarkers	Units	OrigDataRate	OrigDataStartFrame	OrigNumFrames
30.0	30.0	6	21	m	30.0	38	47
Frame#	Time	THUMB_TIP	THUMB_IP	THUMB_MCP	THUMB_CMC	INDEX_TIP	INDEX_DIP	INDEX_PIP	INDEX_MCP	MIDDLE_TIP	MIDDLE_DIP	MIDDLE_PIP	MIDDLE_MCP	RING_TIP	RING_DIP	RING_PIP	RING_MCP	PINKY_TIP	PINKY_DIP	PINKY_PIP	PINKY_MCP	WRIST
X1	Y1	Z1	X2	Y2	Z2	X3	Y3	Z3	X4	Y4	Z4	X5	Y5	Z5	X6	Y6	Z6	X7	Y7	Z7	X8	Y8	Z8	X9	Y9	Z9	X10	Y10	Z10	X11	Y11	Z11	X12	Y12	Z12	X13	Y13	Z13	X14	Y14	Z14	X15	Y15	Z15	X16	Y16	Z16	X17	Y17	Z17	X18	Y18	Z18	X19	Y19	Z19	X20	Y20	Z20	X21	Y21	Z21
37	1.2333333333333334	0.0008641110062599181	-0.02212630081176758	0.9394500122070313	-0.00880113983154297	-0.03249599838256836	0.959593994140625	-0.020179500579833986	-0.028700700759887697	0.98556298828125	-0.02369980049133301	-0.002787460088729858	1.00225	-0.033383399963378906	-0.025792699813842773	0.97064599609375	-0.023921300888061523	-0.028492000579833983	0.9543040161132812	-0.032566398620605466	-0.030058099746704103	0.9345440063476562	-0.06159569931030273	-0.021568199157714844	0.9569530029296875	-0.02164080047607422	-0.010744600296020508	0.9711810302734375	-0.01621859931945801	-0.00924425983428955	0.9621060180664063	-0.021923900604248047	-0.007540979862213135	0.9351849975585937	-0.059663299560546876	0.0007571219801902771	0.9500670166015625	-0.02254680061340332	0.006150859832763672	0.98047802734375	-0.014562299728393555	0.008014320373535156	0.9710380249023437	-0.01481719970703125	0.01224940013885498	0.9459459838867188	-0.05200619888305664	0.02078899955749512	0.9520700073242188	-0.023003299713134764	0.02454949951171875	0.9858679809570312	-0.011854100227355956	0.02396220016479492	0.9756699829101563	-0.012690699577331543	0.02880699920654297	0.9578809814453125	-0.04087779998779297	0.037784801483154294	0.9585770263671874	-0.04403900146484375	0.021391500473022462	1.0203499755859375
38	1.2666666666666666	-0.00017841200530529	-0.028736299514770507	0.9385770263671875	-0.01044890022277832	-0.03671989822387695	0.9598280029296875	-0.021354299545288086	-0.031620800018310545	0.9857659912109376	-0.0244867000579834	-0.0053797998428344726	1.0022100219726562	-0.03287540054321289	-0.02778300094604492	0.9699010009765625	-0.023988100051879884	-0.03046730041503906	0.9529400024414062	-0.03391310119628906	-0.03221080017089844	0.9332689819335938	-0.0620010986328125	-0.023440099716186522	0.9569390258789062	-0.022723100662231446	-0.013078700065612793	0.9708519897460938	-0.016524999618530274	-0.01153059959411621	0.9601820068359375	-0.023226900100708006	-0.009873760223388673	0.9337579956054688	-0.06023939895629883	-0.0012496000528335572	0.9497169799804688	-0.023694799423217772	0.004334219932556152	0.98072802734375	-0.01498009967803955	0.005708730220794678	0.96935302734375	-0.015924099922180177	0.010081999778747559	0.9442730102539062	-0.05288309860229492	0.018634700775146486	0.9516010131835938	-0.022881599426269533	0.021894800186157228	0.984822998046875	-0.012033100128173829	0.0216210994720459	0.9734229736328125	-0.013702699661254883	0.026742300033569335	0.9557830200195313	-0.04187419891357422	0.035667999267578125	0.9582630004882813	-0.04416170120239258	0.01936129951477051	1.0202100219726562
39	1.3	-0.001369940042495727	-0.03682669830322265	0.9383579711914063	-0.01198509979248047	-0.041303298950195313	0.9607260131835937	-0.022596599578857422	-0.03469110107421875	0.9864099731445313	-0.025302799224853515	-0.008073229789733887	1.00277001953125	-0.029119300842285156	-0.02945389938354492	0.9676329956054688	-0.023427200317382813	-0.03229850006103516	0.9499359741210938	-0.03545199966430664	-0.034126300811767575	0.9310070190429688	-0.06175170135498047	-0.0253439998626709	0.9567529907226563	-0.023150699615478516	-0.01504640007019043	0.9711010131835938	-0.015686200141906737	-0.013862299919128417	0.9563170166015625	-0.024941099166870116	-0.012093000411987305	0.931010009765625	-0.060348598480224606	-0.0030176899433135983	0.9493579711914063	-0.0226919002532959	0.0017971099615097042	0.9798060302734375	-0.013690999984741211	0.003185209989547729	0.965405029296875	-0.017556499481201172	0.008265660285949708	0.9408309936523438	-0.05340140151977539	0.016743400573730468	0.9513560180664062	-0.021792600631713867	0.01879570007324219	0.98222900390625	-0.011073399543762207	0.019332199096679686	0.9688729858398437	-0.01507740020751953	0.025115100860595704	0.9520050048828125	-0.04257899856567383	0.03378210067749023	0.9580189819335938	-0.04447539901733399	0.017669700622558595	1.0203800048828124
40	1.3333333333333333	-0.0031451699733734133	-0.04730199813842773	0.9404140014648438	-0.014243000030517578	-0.04773429870605469	0.9635050048828125	-0.024434200286865236	-0.038628299713134764	0.9883980102539063	-0.0266781005859375	-0.01125	1.0044000244140625	-0.02226609992980957	-0.03148139953613281	0.963125	-0.021144100189208984	-0.03458169937133789	0.94368798828125	-0.036677600860595704	-0.035426998138427736	0.9278980102539063	-0.060339401245117184	-0.026593799591064452	0.9562340087890625	-0.019714300155639648	-0.017833999633789063	0.9685570068359375	-0.012476499557495118	-0.016508800506591797	0.9497999877929687	-0.02617650032043457	-0.013668700218200684	0.9270689697265625	-0.0592406005859375	-0.004200099945068359	0.9490349731445312	-0.018469900131225587	-0.0014444500207901	0.976718017578125	-0.01042199993133545	0.0007900649905204771	0.9586480102539062	-0.019055500030517578	0.007335060119628907	0.9357890014648438	-0.05294879913330078	0.015573599815368652	0.9511740112304687	-0.01709370040893555	0.015600199699401856	0.9775759887695312	-0.008684329986572266	0.017659799575805664	0.9623410034179688	-0.015875399589538573	0.024476400375366213	0.9478889770507812	-0.04194390106201172	0.03247000122070313	0.95777001953125	-0.044659599304199216	0.01592430019378662	1.0207100219726561
41	1.3666666666666667	-0.004835569858551025	-0.05675339889526367	0.9433610229492188	-0.016502599716186523	-0.05319570159912109	0.9664400024414063	-0.026396999359130858	-0.042305900573730466	0.9903770141601562	-0.02843280029296875	-0.014231800079345703	1.0065900268554688	-0.012207500457763672	-0.03432830047607422	0.9552930297851563	-0.01693790054321289	-0.03605020141601562	0.9366530151367187	-0.0358120002746582	-0.03549430084228516	0.9249559936523437	-0.057579200744628904	-0.027594900131225585	0.9551409912109375	-0.009563300132751465	-0.020847900390625	0.9616840209960937	-0.007544199943542481	-0.018014299392700196	0.94197900390625	-0.025832500457763672	-0.013462499618530273	0.923552001953125	-0.05699369812011719	-0.004704969882965088	0.9486539916992187	-0.006576550006866455	-0.005247590065002442	0.9695009765625	-0.004684120178222656	-0.000750343024730682	0.9504429931640626	-0.01923189926147461	0.007910600185394287	0.93202197265625	-0.05085279846191406	0.015044699668884278	0.9512990112304688	-0.0073359799385070805	0.012371399879455566	0.9717069702148438	-0.004680399894714356	0.017443700790405272	0.9564840087890625	-0.015483699798583984	0.025268400192260742	0.94510498046875	-0.039875900268554684	0.03183320045471191	0.958155029296875	-0.04485390090942383	0.014215299606323242	1.0214299926757813
42	1.4	-0.006608789920806885	-0.0640239028930664	0.947093994140625	-0.01836549949645996	-0.05707270050048828	0.9690349731445312	-0.028251199722290038	-0.04515539932250977	0.992416015625	-0.030297399520874024	-0.01626530075073242	1.0083099975585939	-0.003097460031509399	-0.03718080139160156	0.9449420166015625	-0.014786999702453613	-0.037601001739501955	0.928698974609375	-0.035471500396728514	-0.03564070129394531	0.92243798828125	-0.054683498382568356	-0.027993799209594727	0.954875	0.00194526994228363	-0.023376699447631835	0.9520079956054688	-0.0036119399070739743	-0.018908300399780274	0.9325020141601562	-0.02563990020751953	-0.012866800308227538	0.9197739868164062	-0.05411280059814453	-0.004843609809875488	0.948364013671875	0.006205999851226806	-0.008020440101623534	0.9580339965820313	0.00021853399276733303	-0.001273499965667724	0.9407030029296874	-0.01847010040283203	0.008364339828491212	0.927989990234375	-0.04701649856567383	0.014649800300598145	0.9510960083007812	0.002825659990310669	0.011619099617004395	0.9628790283203125	-0.000606087028980255	0.019081199645996094	0.9488469848632812	-0.013942500114440919	0.02691550064086914	0.9419359741210938	-0.035921199798583985	0.03146689987182617	0.9582440185546875	-0.04518970108032227	0.013217900276184082	1.0219299926757812
